<svg xmlns="http://www.w3.org/2000/svg">
  <symbol id="chevron" viewBox="0 0 1036 1612">
    <path d="M1017 851l-742 742q-19 19-45 19t-45-19L19 1427q-19-19-19-45t19-45l531-531L19 275Q0 256 0 230t19-45L185 19q19-19 45-19t45 19l742 742q19 19 19 45t-19 45z"/>
  </symbol>

  <symbol id="chiara" viewBox="0 0 256 120">
    <path d="M60,120C26.861,120,0,93.135,0,60C0,26.863,26.861,0,60,0v16.016c-24.254,0-43.986,19.73-43.986,43.984
      S35.746,103.984,60,103.984V120z M196.027,0h-120v16h120V0z M196.027,103.984h-120V120h120V103.984z M196,97.352L196,97.352
      L158.648,60L196,22.648l0,0V0.002V0l-60,60l60,60l0,0V97.352z M196,120L196,120l60-60L196,0v0.002v22.646l0,0L233.352,60L196,97.352
      l0,0V120z"/>
  </symbol>

  <symbol id="download" viewBox="0 0 1664 1536">
    <path d="M1280 1344q0-26-19-45t-45-19q-26 0-45 19t-19 45q0 26 19 45t45 19q26 0 45-19t19-45zm256 0q0-26-19-45t-45-19q-26 0-45 19t-19 45q0 26 19 45t45 19q26 0 45-19t19-45zm128-224v320q0 40-28 68t-68 28H96q-40 0-68-28t-28-68v-320q0-40 28-68t68-28h465l135 136q58 56 136 56t136-56l136-136h464q40 0 68 28t28 68zm-325-569q17 41-14 70l-448 448q-18 19-45 19t-45-19L339 621q-31-29-14-70 17-39 59-39h256V64q0-26 19-45t45-19h256q26 0 45 19t19 45v448h256q42 0 59 39z"/>
  </symbol>

  <symbol id="glass" viewBox="0 0 1664 1664">
    <path d="M1152 704q0-185-131-316-132-132-317-132T388 388Q256 519 256 704t132 317q131 131 316 131t317-131q131-132 131-317zm512 832q0 52-38 90t-90 38q-54 0-90-38l-343-342q-179 124-399 124-143 0-273-55-131-56-225-150-95-95-150-225Q0 847 0 704t56-273q55-131 150-225 94-95 225-150Q561 0 704 0t274 56q130 55 225 150 94 94 150 225 55 130 55 273 0 220-124 399l343 343q37 37 37 90z"/>
  </symbol>

  <symbol id="i" viewBox="0 0 640 1408">
    <path d="M640 1216v128q0 26-19 45t-45 19H64q-26 0-45-19t-19-45v-128q0-26 19-45t45-19h64V768H64q-26 0-45-19T0 704V576q0-26 19-45t45-19h384q26 0 45 19t19 45v576h64q26 0 45 19t19 45zM512 64v192q0 26-19 45t-45 19H192q-26 0-45-19t-19-45V64q0-26 19-45t45-19h256q26 0 45 19t19 45z"/>
  </symbol>

  <symbol id="logo" viewBox="0 0 2900.5837 541.4375">
    <path d="M0 0v387.1c22.22-2.97 44.57-4.8 67.38-4.88 32.6-11.5 59.93-34 86.65-55 57.38-49.48 109.45-104.36 165.34-155.38l-90.53-89.03L314.56 0H0zm362.75 214.63c-68.81 69.69-146.95 132.07-202.4 213.03-28 32.23-11.63 76.49-23.44 113.78h404.5V217.22c-28.91 27.93-57.82 55.84-86.75 83.75l-91.91-86.35zM24.09 427.88A76.14 76.14 0 000 432.15v109.28h83.06c19-27.9 19.47-68.5-7.78-92.1a72.58 72.58 0 00-16.31-11.93 64.7 64.7 0 00-34.88-9.54zM697.66 381.2h55.8V293h73.5v88.2h55.8V167h-55.8v78h-73.5v-78h-55.8v214.2M912.23 274.1c0 62.1 38.1 111.6 105.6 111.6s105.6-49.5 105.6-111.6c0-62.1-38.1-111.6-105.6-111.6s-105.6 49.5-105.6 111.6m55.8 0c0-31.8 13.8-63.6 49.8-63.6s49.8 31.8 49.8 63.6-13.8 63.6-49.8 63.6-49.8-31.8-49.8-63.6M1153.53 381.2h55.8v-78h42.3c26.1 0 29.7 22.2 31.2 43.8.6 6 1.5 27 6.3 34.2h55.2c-7.5-7.8-8.4-39.3-9-48.3-1.8-20.4-8.4-45.9-31.2-51.3v-.6c22.5-8.7 33.6-30.6 33.6-53.7 0-43.2-37.2-60.3-75-60.3h-109.2v214.2m55.8-169.5h44.4c15.6 0 28.2 7.2 28.2 23.1 0 16.2-9 25.2-25.8 25.2h-46.8v-48.3M1358.03 309.2c.3 54.9 43.8 76.5 93 76.5 47.1 0 93.3-17.4 93.3-71.7 0-38.7-31.2-53.1-62.1-61.8-31.2-8.7-62.1-11.7-62.1-28.2 0-14.1 15-18.3 27-18.3 17.1 0 35.4 6.3 34.5 25.8h55.8c-.3-48.3-43.2-69-85.8-69-40.2 0-87.3 18.3-87.3 65.1 0 39.3 32.1 53.1 62.7 61.8 30.9 8.7 61.5 12.3 61.5 31.2 0 15.9-17.4 21.9-34.2 21.9-23.7 0-39.3-8.1-40.5-33.3h-55.8M1570.72 381.2h173.7v-48h-117.9v-40.8h105v-43.2h-105v-37.5h114.9V167h-170.7v214.2M1776.39 381.2h55.8v-71.4h45.9c47.1 0 77.4-20.7 77.4-73.8 0-50.7-37.5-69-77.4-69h-101.7v214.2m55.8-169.5h37.5c17.1 0 30 8.1 30 28.2 0 19.5-12.6 26.7-30 26.7h-37.5v-54.9M1973.95 274.1c0 62.1 38.1 111.6 105.6 111.6s105.6-49.5 105.6-111.6c0-62.1-38.1-111.6-105.6-111.6s-105.6 49.5-105.6 111.6m55.8 0c0-31.8 13.8-63.6 49.8-63.6s49.8 31.8 49.8 63.6-13.8 63.6-49.8 63.6-49.8-31.8-49.8-63.6M2484.95 167h-55.8l-30.3 156.6h-.6l-31.5-156.6h-52.5l-31.5 156.6h-.6l-30.3-156.6h-55.8l57.9 214.2h56.7l29.4-147.6h.6l29.4 147.6h55.8l59.1-214.2M2504.12 381.2h173.7v-48h-117.9v-40.8h105v-43.2h-105v-37.5h114.9V167h-170.7v214.2M2709.78 381.2h55.8v-78h42.3c26.1 0 29.7 22.2 31.2 43.8.6 6 1.5 27 6.3 34.2h55.2c-7.5-7.8-8.4-39.3-9-48.3-1.8-20.4-8.4-45.9-31.2-51.3v-.6c22.5-8.7 33.6-30.6 33.6-53.7 0-43.2-37.2-60.3-75-60.3h-109.2v214.2m55.8-169.5h44.4c15.6 0 28.2 7.2 28.2 23.1 0 16.2-9 25.2-25.8 25.2h-46.8v-48.3"/>
  </symbol>

  <symbol id="spinner" viewBox="0 0 38 38">
    <g transform="translate(1 1)" stroke="#fff" stroke-width="2" fill="none" fill-rule="evenodd">
      <circle stroke-opacity=".5" cx="18" cy="18" r="18"/>
      <path d="M36 18C36 8 28 0 18 0" />
    </g>
  </symbol>
</svg>
