<?xml version="1.0" encoding="UTF-8" standalone="no"?>
<!-- Created with Inkscape (http://www.inkscape.org/) -->

<svg
   xmlns:svg="http://www.w3.org/2000/svg"
   xmlns="http://www.w3.org/2000/svg"
   version="1.1"
   width="2900.5837"
   height="541.4375"
   id="svg2997">
  <g
     transform="translate(-71.4375,-201.08682)"
     id="layer1">
    <path
       d="m 71.4375,201.08682 0,387.09375 c 22.219782,-2.96038 44.56536,-4.78802 67.375,-4.875 32.59923,-11.48964 59.93794,-34.006 86.65625,-55 57.3773,-49.47636 109.45121,-104.35541 165.34375,-155.375 -30.17704,-29.68051 -60.35439,-59.35056 -90.53125,-89.03125 28.574,-27.60525 57.14475,-55.20726 85.71875,-82.8125 l -314.5625,0 z m 362.75,214.625 c -68.81455,69.69482 -146.94892,132.07182 -202.40625,213.03125 -27.99826,32.23116 -11.62382,76.49209 -23.4375,113.78125 l 404.5,0 0,-324.21875 c -28.90578,27.93266 -57.81432,55.84625 -86.75,83.75 -30.63963,-28.78839 -61.26654,-57.55523 -91.90625,-86.34375 z m -338.65625,213.25 c -8.167935,0.0823 -16.321532,1.58923 -24.09375,4.28125 l 0,109.28125 83.0625,0 c 18.99371,-27.896 19.46946,-68.49724 -7.78125,-92.09375 -4.80806,-4.70552 -10.33825,-8.71526 -16.3125,-11.9375 -10.88802,-6.70336 -22.8997,-9.65197 -34.875,-9.53125 z"
       id="rect2985"
       style="fill:#ffffff;fill-opacity:1;stroke-width:6" />
    <g
       id="text3782"
       style="fill:#ffffff;fill-opacity:1;stroke:none;">
      <path
         d="m 769.0978,582.28534 55.8,0 0,-88.2 73.5,0 0,88.2 55.8,0 0,-214.2 -55.8,0 0,78 -73.5,0 0,-78 -55.8,0 0,214.2"
         id="path3022" />
      <path
         d="m 983.66812,475.18534 c 0,62.09994 38.10008,111.6 105.59998,111.6 67.4999,0 105.6,-49.50006 105.6,-111.6 0,-62.09994 -38.1001,-111.6 -105.6,-111.6 -67.4999,0 -105.59998,49.50006 -105.59998,111.6 m 55.79998,0 c 0,-31.79997 13.8001,-63.6 49.8,-63.6 36,0 49.8,31.80003 49.8,63.6 0,31.79997 -13.8,63.6 -49.8,63.6 -35.9999,0 -49.8,-31.80003 -49.8,-63.6"
         id="path3024" />
      <path
         d="m 1224.9712,582.28534 55.8,0 0,-78 42.3,0 c 26.1,0 29.7,22.20002 31.2,43.8 0.6,5.99999 1.5,27.00001 6.3,34.2 l 55.2,0 c -7.5,-7.79999 -8.4,-39.30001 -9,-48.3 -1.8,-20.39998 -8.4,-45.90001 -31.2,-51.3 l 0,-0.6 c 22.5,-8.69999 33.6,-30.60002 33.6,-53.7 0,-43.19996 -37.2,-60.3 -75,-60.3 l -109.2,0 0,214.2 m 55.8,-169.5 44.4,0 c 15.6,0 28.2,7.20002 28.2,23.1 0,16.19998 -9,25.2 -25.8,25.2 l -46.8,0 0,-48.3"
         id="path3026" />
      <path
         d="m 1429.4681,510.28534 c 0.3,54.89994 43.8001,76.5 93,76.5 47.1,0 93.3,-17.40005 93.3,-71.7 0,-38.69996 -31.2,-53.10001 -62.1,-61.8 -31.2,-8.69999 -62.1,-11.70002 -62.1,-28.2 0,-14.09999 15,-18.3 27,-18.3 17.1,0 35.4,6.30002 34.5,25.8 l 55.8,0 c -0.3,-48.29995 -43.2,-69 -85.8,-69 -40.1999,0 -87.3,18.30005 -87.3,65.1 0,39.29996 32.1,53.10001 62.7,61.8 30.9,8.69999 61.5,12.30002 61.5,31.2 0,15.89998 -17.4,21.9 -34.2,21.9 -23.7,0 -39.3,-8.10003 -40.5,-33.3 l -55.8,0"
         id="path3028" />
      <path
         d="m 1642.1587,582.28534 173.7,0 0,-48 -117.9,0 0,-40.8 105,0 0,-43.2 -105,0 0,-37.5 114.9,0 0,-44.7 -170.7,0 0,214.2"
         id="path3030" />
      <path
         d="m 1847.8228,582.28534 55.8,0 0,-71.4 45.9,0 c 47.1,0 77.4,-20.70005 77.4,-73.8 0,-50.69995 -37.5,-69 -77.4,-69 l -101.7,0 0,214.2 m 55.8,-169.5 37.5,0 c 17.1,0 30,8.10002 30,28.2 0,19.49998 -12.6,26.7 -30,26.7 l -37.5,0 0,-54.9"
         id="path3032" />
      <path
         d="m 2045.3869,475.18534 c 0,62.09994 38.1,111.6 105.6,111.6 67.4999,0 105.6,-49.50006 105.6,-111.6 0,-62.09994 -38.1001,-111.6 -105.6,-111.6 -67.5,0 -105.6,49.50006 -105.6,111.6 m 55.8,0 c 0,-31.79997 13.8,-63.6 49.8,-63.6 35.9999,0 49.8,31.80003 49.8,63.6 0,31.79997 -13.8001,63.6 -49.8,63.6 -36,0 -49.8,-31.80003 -49.8,-63.6"
         id="path3034" />
      <path
         d="m 2556.39,368.08534 -55.8,0 -30.3,156.6 -0.6,0 -31.5,-156.6 -52.5,0 -31.5,156.6 -0.6,0 -30.3,-156.6 -55.8,0 57.9,214.2 56.7,0 29.4,-147.6 0.6,0 29.4,147.6 55.8,0 59.1,-214.2"
         id="path3036" />
      <path
         d="m 2575.5572,582.28534 173.7,0 0,-48 -117.9,0 0,-40.8 105,0 0,-43.2 -105,0 0,-37.5 114.9,0 0,-44.7 -170.7,0 0,214.2"
         id="path3038" />
      <path
         d="m 2781.2212,582.28534 55.8,0 0,-78 42.3,0 c 26.1,0 29.7,22.20002 31.2,43.8 0.6,5.99999 1.5,27.00001 6.3,34.2 l 55.2,0 c -7.5,-7.79999 -8.4,-39.30001 -9,-48.3 -1.8,-20.39998 -8.4,-45.90001 -31.2,-51.3 l 0,-0.6 c 22.5,-8.69999 33.6,-30.60002 33.6,-53.7 0,-43.19996 -37.2,-60.3 -75,-60.3 l -109.2,0 0,214.2 m 55.8,-169.5 44.4,0 c 15.6,0 28.2,7.20002 28.2,23.1 0,16.19998 -9,25.2 -25.8,25.2 l -46.8,0 0,-48.3"
         id="path3040" />
    </g>
  </g>
</svg>
