<?xml version="1.0" encoding="UTF-8" standalone="no"?>
<!-- Created with Inkscape (http://www.inkscape.org/) -->

<svg
   xmlns:dc="http://purl.org/dc/elements/1.1/"
   xmlns:cc="http://creativecommons.org/ns#"
   xmlns:rdf="http://www.w3.org/1999/02/22-rdf-syntax-ns#"
   xmlns:svg="http://www.w3.org/2000/svg"
   xmlns="http://www.w3.org/2000/svg"
   xmlns:sodipodi="http://sodipodi.sourceforge.net/DTD/sodipodi-0.dtd"
   xmlns:inkscape="http://www.inkscape.org/namespaces/inkscape"
   version="1.1"
   width="2905.4246"
   height="839.49756"
   id="svg2997"
   inkscape:version="0.48.4 r9939"
   sodipodi:docname="logo-url.svg">
  <sodipodi:namedview
     pagecolor="#ffffff"
     bordercolor="#666666"
     borderopacity="1"
     objecttolerance="10"
     gridtolerance="10"
     guidetolerance="10"
     inkscape:pageopacity="0"
     inkscape:pageshadow="2"
     inkscape:window-width="1920"
     inkscape:window-height="1055"
     id="namedview3003"
     showgrid="false"
     fit-margin-top="0"
     fit-margin-left="0"
     fit-margin-right="0"
     fit-margin-bottom="0"
     inkscape:zoom="0.42468882"
     inkscape:cx="1578.2405"
     inkscape:cy="133.64137"
     inkscape:window-x="0"
     inkscape:window-y="0"
     inkscape:window-maximized="1"
     inkscape:current-layer="svg2997" />
  <metadata
     id="metadata3016">
    <rdf:RDF>
      <cc:Work
         rdf:about="">
        <dc:format>image/svg+xml</dc:format>
        <dc:type
           rdf:resource="http://purl.org/dc/dcmitype/StillImage" />
        <dc:title />
      </cc:Work>
    </rdf:RDF>
  </metadata>
  <defs
     id="defs3014" />
  <g
     transform="translate(-71.4375,-201.08682)"
     id="layer1">
    <path
       d="m 71.4375,201.08682 0,387.09375 c 22.219782,-2.96038 44.56536,-4.78802 67.375,-4.875 32.59923,-11.48964 59.93794,-34.006 86.65625,-55 57.3773,-49.47636 109.45121,-104.35541 165.34375,-155.375 -30.17704,-29.68051 -60.35439,-59.35056 -90.53125,-89.03125 28.574,-27.60525 57.14475,-55.20726 85.71875,-82.8125 l -314.5625,0 z m 362.75,214.625 c -68.81455,69.69482 -146.94892,132.07182 -202.40625,213.03125 -27.99826,32.23116 -11.62382,76.49209 -23.4375,113.78125 l 404.5,0 0,-324.21875 c -28.90578,27.93266 -57.81432,55.84625 -86.75,83.75 -30.63963,-28.78839 -61.26654,-57.55523 -91.90625,-86.34375 z m -338.65625,213.25 c -8.167935,0.0823 -16.321532,1.58923 -24.09375,4.28125 l 0,109.28125 83.0625,0 c 18.99371,-27.896 19.46946,-68.49724 -7.78125,-92.09375 -4.80806,-4.70552 -10.33825,-8.71526 -16.3125,-11.9375 -10.88802,-6.70336 -22.8997,-9.65197 -34.875,-9.53125 z"
       id="rect2985"
       style="fill:#000000;fill-opacity:1;stroke-width:6"
       inkscape:connector-curvature="0" />
    <g
       id="text3782"
       style="font-size:300px;font-style:normal;font-variant:normal;font-weight:bold;font-stretch:normal;line-height:125%;letter-spacing:0px;word-spacing:0px;fill:#000000;fill-opacity:1;stroke:none;font-family:Helvetica Neue;-inkscape-font-specification:Helvetica Neue Bold">
      <path
         d="m 769.0978,582.28534 55.8,0 0,-88.2 73.5,0 0,88.2 55.8,0 0,-214.2 -55.8,0 0,78 -73.5,0 0,-78 -55.8,0 0,214.2"
         id="path3022"
         style="font-family:Helvetica Neue;-inkscape-font-specification:Helvetica Neue Bold"
         inkscape:connector-curvature="0" />
      <path
         d="m 983.66812,475.18534 c 0,62.09994 38.10008,111.6 105.59998,111.6 67.4999,0 105.6,-49.50006 105.6,-111.6 0,-62.09994 -38.1001,-111.6 -105.6,-111.6 -67.4999,0 -105.59998,49.50006 -105.59998,111.6 m 55.79998,0 c 0,-31.79997 13.8001,-63.6 49.8,-63.6 36,0 49.8,31.80003 49.8,63.6 0,31.79997 -13.8,63.6 -49.8,63.6 -35.9999,0 -49.8,-31.80003 -49.8,-63.6"
         id="path3024"
         style="font-family:Helvetica Neue;-inkscape-font-specification:Helvetica Neue Bold"
         inkscape:connector-curvature="0" />
      <path
         d="m 1224.9712,582.28534 55.8,0 0,-78 42.3,0 c 26.1,0 29.7,22.20002 31.2,43.8 0.6,5.99999 1.5,27.00001 6.3,34.2 l 55.2,0 c -7.5,-7.79999 -8.4,-39.30001 -9,-48.3 -1.8,-20.39998 -8.4,-45.90001 -31.2,-51.3 l 0,-0.6 c 22.5,-8.69999 33.6,-30.60002 33.6,-53.7 0,-43.19996 -37.2,-60.3 -75,-60.3 l -109.2,0 0,214.2 m 55.8,-169.5 44.4,0 c 15.6,0 28.2,7.20002 28.2,23.1 0,16.19998 -9,25.2 -25.8,25.2 l -46.8,0 0,-48.3"
         id="path3026"
         style="font-family:Helvetica Neue;-inkscape-font-specification:Helvetica Neue Bold"
         inkscape:connector-curvature="0" />
      <path
         d="m 1429.4681,510.28534 c 0.3,54.89994 43.8001,76.5 93,76.5 47.1,0 93.3,-17.40005 93.3,-71.7 0,-38.69996 -31.2,-53.10001 -62.1,-61.8 -31.2,-8.69999 -62.1,-11.70002 -62.1,-28.2 0,-14.09999 15,-18.3 27,-18.3 17.1,0 35.4,6.30002 34.5,25.8 l 55.8,0 c -0.3,-48.29995 -43.2,-69 -85.8,-69 -40.1999,0 -87.3,18.30005 -87.3,65.1 0,39.29996 32.1,53.10001 62.7,61.8 30.9,8.69999 61.5,12.30002 61.5,31.2 0,15.89998 -17.4,21.9 -34.2,21.9 -23.7,0 -39.3,-8.10003 -40.5,-33.3 l -55.8,0"
         id="path3028"
         style="font-family:Helvetica Neue;-inkscape-font-specification:Helvetica Neue Bold"
         inkscape:connector-curvature="0" />
      <path
         d="m 1642.1587,582.28534 173.7,0 0,-48 -117.9,0 0,-40.8 105,0 0,-43.2 -105,0 0,-37.5 114.9,0 0,-44.7 -170.7,0 0,214.2"
         id="path3030"
         style="font-family:Helvetica Neue;-inkscape-font-specification:Helvetica Neue Bold"
         inkscape:connector-curvature="0" />
      <path
         d="m 1847.8228,582.28534 55.8,0 0,-71.4 45.9,0 c 47.1,0 77.4,-20.70005 77.4,-73.8 0,-50.69995 -37.5,-69 -77.4,-69 l -101.7,0 0,214.2 m 55.8,-169.5 37.5,0 c 17.1,0 30,8.10002 30,28.2 0,19.49998 -12.6,26.7 -30,26.7 l -37.5,0 0,-54.9"
         id="path3032"
         style="font-family:Helvetica Neue;-inkscape-font-specification:Helvetica Neue Bold"
         inkscape:connector-curvature="0" />
      <path
         d="m 2045.3869,475.18534 c 0,62.09994 38.1,111.6 105.6,111.6 67.4999,0 105.6,-49.50006 105.6,-111.6 0,-62.09994 -38.1001,-111.6 -105.6,-111.6 -67.5,0 -105.6,49.50006 -105.6,111.6 m 55.8,0 c 0,-31.79997 13.8,-63.6 49.8,-63.6 35.9999,0 49.8,31.80003 49.8,63.6 0,31.79997 -13.8001,63.6 -49.8,63.6 -36,0 -49.8,-31.80003 -49.8,-63.6"
         id="path3034"
         style="font-family:Helvetica Neue;-inkscape-font-specification:Helvetica Neue Bold"
         inkscape:connector-curvature="0" />
      <path
         d="m 2556.39,368.08534 -55.8,0 -30.3,156.6 -0.6,0 -31.5,-156.6 -52.5,0 -31.5,156.6 -0.6,0 -30.3,-156.6 -55.8,0 57.9,214.2 56.7,0 29.4,-147.6 0.6,0 29.4,147.6 55.8,0 59.1,-214.2"
         id="path3036"
         style="font-family:Helvetica Neue;-inkscape-font-specification:Helvetica Neue Bold"
         inkscape:connector-curvature="0" />
      <path
         d="m 2575.5572,582.28534 173.7,0 0,-48 -117.9,0 0,-40.8 105,0 0,-43.2 -105,0 0,-37.5 114.9,0 0,-44.7 -170.7,0 0,214.2"
         id="path3038"
         style="font-family:Helvetica Neue;-inkscape-font-specification:Helvetica Neue Bold"
         inkscape:connector-curvature="0" />
      <path
         d="m 2781.2212,582.28534 55.8,0 0,-78 42.3,0 c 26.1,0 29.7,22.20002 31.2,43.8 0.6,5.99999 1.5,27.00001 6.3,34.2 l 55.2,0 c -7.5,-7.79999 -8.4,-39.30001 -9,-48.3 -1.8,-20.39998 -8.4,-45.90001 -31.2,-51.3 l 0,-0.6 c 22.5,-8.69999 33.6,-30.60002 33.6,-53.7 0,-43.19996 -37.2,-60.3 -75,-60.3 l -109.2,0 0,214.2 m 55.8,-169.5 44.4,0 c 15.6,0 28.2,7.20002 28.2,23.1 0,16.19998 -9,25.2 -25.8,25.2 l -46.8,0 0,-48.3"
         id="path3040"
         style="font-family:Helvetica Neue;-inkscape-font-specification:Helvetica Neue Bold"
         inkscape:connector-curvature="0" />
    </g>
  </g>
  <g
     style="font-size:160px;font-style:normal;font-variant:normal;font-weight:bold;font-stretch:normal;line-height:125%;letter-spacing:0px;word-spacing:0px;fill:#000000;fill-opacity:1;stroke:none;font-family:Helvetica Neue;-inkscape-font-specification:Sans Bold"
     id="text3005">
    <path
       d="m 1006.3525,544.45959 27.2,0 0,-45.28 c 0,-9.11999 4.48,-17.76 14.72,-17.76 14.88,0 13.6,11.52002 13.6,22.88 l 0,40.16 27.2,0 0,-53.28 c 0,-11.99998 -2.24,-32.16 -29.92,-32.16 -9.92,0 -21.12,5.28001 -25.28,13.76 l -0.32,0 0,-42.56 -27.2,0 0,114.24"
       style=""
       id="path3106" />
    <path
       d="m 1150.17,479.81959 c 12,0 16.16,11.68002 16.16,22.24 0,11.35999 -4.16,24 -16.32,24 -12.32,0 -16.48,-9.44001 -16.48,-24 0,-17.11998 9.28,-22.24 16.64,-22.24 m -42.88,92.48 27.2,0 0,-36.8 0.32,0 c 5.6,7.52 13.44,11.36 23.68,11.36 23.52,0 35.04,-20.48002 35.04,-42.08 0,-23.35997 -11.04,-45.76 -37.12,-45.76 -9.6,0 -17.6,4.16001 -22.88,12 l -0.32,0 0,-9.6 -25.92,0 0,110.88"
       style=""
       id="path3108" />
    <path
       d="m 1209.5075,544.45959 29.76,0 0,-29.76 -29.76,0 0,29.76"
       style=""
       id="path3110" />
    <path
       d="m 1259.8125,544.45959 27.2,0 0,-114.24 -27.2,0 0,114.24"
       style=""
       id="path3112" />
    <path
       d="m 1329.5525,494.37959 c 1.6,-10.07999 8,-16.96 17.6,-16.96 9.12,0 15.68,7.68001 16.16,16.96 l -33.76,0 m 60.96,15.2 c 1.28,-28.15997 -13.6,-50.56 -43.36,-50.56 -24.48,0 -44.8,18.24003 -44.8,43.68 0,27.83998 18.4,44.16 45.44,44.16 18.56,0 36.32,-8.32001 41.28,-27.52 l -25.44,0 c -2.56,6.08 -8.96,9.12 -15.52,9.12 -11.52,0 -18.08,-7.52001 -18.56,-18.88 l 60.96,0"
       style=""
       id="path3114" />
    <path
       d="m 1528.325,461.41959 -27.68,0 -13.6,53.6 -0.32,0 -12.16,-53.6 -25.92,0 -11.84,53.76 -0.32,0 -13.92,-53.76 -27.52,0 25.92,83.04 27.52,0 12.96,-55.2 0.32,0 13.12,55.2 27.52,0 25.92,-83.04"
       style=""
       id="path3116" />
    <path
       d="m 1538.5625,544.45959 27.2,0 0,-83.04 -27.2,0 0,83.04 m 27.2,-114.24 -27.2,0 0,20.8 27.2,0 0,-20.8"
       style=""
       id="path3118" />
    <path
       d="m 1580.3025,517.09959 c 0.8,23.19998 20.96,29.76 40.64,29.76 18.72,0 39.84,-7.36002 39.84,-29.6 0,-6.87999 -4.32,-19.04 -21.12,-22.4 -12.48,-2.71999 -30.72,-4.16 -30.72,-12 0,-5.75999 7.2,-6.24 11.68,-6.24 3.36,0 6.4,0.64001 8.64,2.08 2.24,1.44 3.52,3.68001 3.52,7.2 l 25.12,0 c -0.96,-21.59997 -20,-26.88 -38.24,-26.88 -16.32,0 -37.92,5.44002 -37.92,25.44 0,22.39998 21.44,22.88001 38.56,27.2 4.8,1.12 13.28,2.40001 13.28,8.8 0,6.56 -7.52,8.8 -12.8,8.8 -3.84,0 -7.52,-0.96 -10.08,-2.88 -2.72,-2.07999 -4.48,-5.12 -4.48,-9.28 l -25.92,0"
       style=""
       id="path3120" />
    <path
       d="m 1754.645,491.81959 c -1.92,-21.91997 -20.32,-32.8 -40.96,-32.8 -26.72,0 -43.52,18.88003 -43.52,45.28 0,25.43998 18.56,42.56 43.52,42.56 22.08,0 39.36,-12.80002 41.76,-35.04 l -26.4,0 c -1.28,8.8 -6.08,14.24 -15.52,14.24 -11.52,0 -16.16,-11.04001 -16.16,-21.76 0,-11.51998 2.4,-24.48 17.6,-24.48 6.88,0 13.12,4.96001 13.28,12 l 26.4,0"
       style=""
       id="path3122" />
    <path
       d="m 1792.365,503.01959 c 0,-10.55998 3.84,-23.2 16.48,-23.2 12.64,0 16.64,12.64002 16.64,23.2 0,10.55999 -4,23.04 -16.64,23.04 -12.64,0 -16.48,-12.48001 -16.48,-23.04 m -27.2,0 c 0,24.95998 17.92,43.84 43.68,43.84 25.76,0 43.84,-18.88002 43.84,-43.84 0,-24.95997 -18.08,-44 -43.84,-44 -25.76,0 -43.68,19.04003 -43.68,44"
       style=""
       id="path3124" />
    <path
       d="m 1867.9375,544.45959 27.2,0 0,-114.24 -27.2,0 0,114.24"
       style=""
       id="path3126" />
    <path
       d="m 1915.4375,544.45959 27.2,0 0,-114.24 -27.2,0 0,114.24"
       style=""
       id="path3128" />
    <path
       d="m 1984.6975,520.61959 c 0,-6.55999 5.12,-9.12 11.2,-10.56 5.92,-1.59999 12.96,-2.08 16.8,-4.48 0.64,17.11999 -3.68,24.48 -16.64,24.48 -6.08,0 -11.36,-2.72 -11.36,-9.44 m 1.6,-33.6 c 1.28,-7.03999 6.08,-10.4 13.6,-10.4 5.6,0 13.12,2.40001 13.12,8.64 0,5.12 -2.56,6.72001 -7.2,7.68 -18.88,3.84 -48.32,1.76003 -48.32,28.8 0,17.11999 12.48,25.12 28.32,25.12 9.92,0 20.32,-2.88 27.36,-10.24 0.32,2.72 0.64,5.28001 1.6,7.84 l 27.36,0 c -3.2,-6.55999 -3.2,-14.24 -3.2,-21.28 l 0,-36.32 c 0,-23.51997 -19.04,-27.84 -38.72,-27.84 -9.44,0 -19.04,1.60001 -26.4,5.76 -7.36,4.32 -12.48,11.36002 -12.96,22.24 l 25.44,0"
       style=""
       id="path3130" />
    <path
       d="m 2057.9375,544.45959 27.2,0 0,-41.12 c 0,-10.39998 7.04,-19.68 20.48,-19.68 3.68,0 6.88,0.64001 10.4,1.6 l 0,-24.8 c -2.08,-0.47999 -4.32,-0.64 -6.4,-0.64 -11.68,0 -20.96,5.60002 -24.96,16.16 l -0.32,0 0,-14.56 -26.4,0 0,83.04"
       style=""
       id="path3132" />
    <path
       d="m 2162.0626,479.81959 c 11.84,0 16.16,11.04002 16.16,23.04 0,10.55999 -2.88,23.2 -16.16,23.2 -12.48,0 -16.64,-12.64001 -16.64,-24 0,-10.55998 4.16,-22.24 16.64,-22.24 m 42.4,-49.6 -27.2,0 0,40.16 -0.32,0 c -5.6,-7.51999 -13.44,-11.36 -23.68,-11.36 -23.52,0 -35.04,20.48003 -35.04,42.08 0,23.35998 11.04,45.76 37.12,45.76 9.6,0 17.6,-4.16 22.88,-12 l 0.32,0 0,9.6 25.92,0 0,-114.24"
       style=""
       id="path3134" />
    <path
       d="m 2224.4401,544.45959 29.76,0 0,-29.76 -29.76,0 0,29.76"
       style=""
       id="path3136" />
    <path
       d="m 2354.2651,491.81959 c -1.92,-21.91997 -20.32,-32.8 -40.96,-32.8 -26.72,0 -43.52,18.88003 -43.52,45.28 0,25.43998 18.56,42.56 43.52,42.56 22.08,0 39.36,-12.80002 41.76,-35.04 l -26.4,0 c -1.28,8.8 -6.08,14.24 -15.52,14.24 -11.52,0 -16.16,-11.04001 -16.16,-21.76 0,-11.51998 2.4,-24.48 17.6,-24.48 6.88,0 13.12,4.96001 13.28,12 l 26.4,0"
       style=""
       id="path3138" />
    <path
       d="m 2391.9851,503.01959 c 0,-10.55998 3.84,-23.2 16.48,-23.2 12.64,0 16.64,12.64002 16.64,23.2 0,10.55999 -4,23.04 -16.64,23.04 -12.64,0 -16.48,-12.48001 -16.48,-23.04 m -27.2,0 c 0,24.95998 17.92,43.84 43.68,43.84 25.76,0 43.84,-18.88002 43.84,-43.84 0,-24.95997 -18.08,-44 -43.84,-44 -25.76,0 -43.68,19.04003 -43.68,44"
       style=""
       id="path3140" />
    <path
       d="m 2466.5976,544.45959 27.2,0 0,-40.48 c 0,-16.95998 4.16,-22.56 13.92,-22.56 7.36,0 10.24,6.08001 10.24,15.84 l 0,47.2 27.2,0 0,-40.64 c 0,-13.43998 1.12,-22.4 12.8,-22.4 7.04,0 11.36,5.28001 11.36,14.24 l 0,48.8 27.2,0 0,-49.6 c 0,-15.83998 -2.88,-35.84 -29.28,-35.84 -11.2,0 -19.36,4.64001 -25.92,13.44 -4.48,-10.07999 -13.76,-13.44 -24.16,-13.44 -10.08,0 -18.88,5.44001 -23.84,13.76 l -0.32,0 0,-11.36 -26.4,0 0,83.04"
       style=""
       id="path3142" />
  </g>
</svg>
